<svg xmlns="http://www.w3.org/2000/svg" viewBox="0 0 512 512">
  <rect width="512" height="512" fill="#fff4dc" />
  <circle cx="256" cy="256" r="196" fill="#f4c56d" />
  <rect x="132" y="132" width="248" height="248" rx="64" fill="#fffaf2" />
  <path d="M186 196h140c20 0 36 16 36 36v48c0 46-38 84-84 84h-8c-46 0-84-38-84-84v-48c0-20 16-36 36-36Z" fill="#5f7d4e" />
  <path d="M220 170c0-16 13-29 29-29h14c16 0 29 13 29 29v26h-72v-26Z" fill="#db6d45" />
  <circle cx="256" cy="254" r="24" fill="#fffaf2" />
  <path d="M228 318h56" stroke="#db6d45" stroke-width="18" stroke-linecap="round" />
</svg>
