<svg xmlns="http://www.w3.org/2000/svg" viewBox="0 0 512 512">
  <defs>
    <linearGradient id="bg" x1="0%" y1="0%" x2="100%" y2="100%">
      <stop offset="0%" stop-color="#fff4dc" />
      <stop offset="100%" stop-color="#f4c56d" />
    </linearGradient>
  </defs>
  <rect width="512" height="512" rx="124" fill="url(#bg)" />
  <circle cx="386" cy="130" r="56" fill="#f7df9d" opacity="0.7" />
  <rect x="96" y="112" width="320" height="288" rx="56" fill="#fffaf2" />
  <path d="M176 170h160c22 0 40 18 40 40v56c0 53-43 96-96 96h-8c-53 0-96-43-96-96v-56c0-22 18-40 40-40Z" fill="#5f7d4e" />
  <path d="M220 138c0-18 15-33 33-33h6c18 0 33 15 33 33v30H220v-30Z" fill="#db6d45" />
  <circle cx="256" cy="250" r="28" fill="#fffaf2" />
  <path d="M230 322h52" stroke="#db6d45" stroke-width="18" stroke-linecap="round" />
</svg>
